<?xml version="1.0" encoding="utf-8"?>
<!-- Generator: Adobe Illustrator 16.0.0, SVG Export Plug-In . SVG Version: 6.00 Build 0)  -->
<!DOCTYPE svg PUBLIC "-//W3C//DTD SVG 1.1//EN" "http://www.w3.org/Graphics/SVG/1.1/DTD/svg11.dtd">
<svg version="1.1" xmlns="http://www.w3.org/2000/svg" xmlns:xlink="http://www.w3.org/1999/xlink" x="0px" y="0px"
	 width="628.085px" height="645.23px" viewBox="0 0 628.085 645.23" enable-background="new 0 0 628.085 645.23"
	 xml:space="preserve">
<g id="はす">
	<g>
		<path fill="#FFFFFF" stroke="#000000" stroke-width="5.2511" d="M409.054,943.852c11.26,9.578,105.462-9.168,170.417-118.619
			c34.832-58.691,50.506-161.67,41.13-184.688c-11.493-28.259-77.513,44.179-101.561,78.723
			c-29.072,41.735-63.573,79.803-80.411,96.825c-22.502,22.746-49.29,40.201-59.202,48.248"/>
		<path fill="none" stroke="#000000" stroke-width="5.3992" d="M493.494,819.225c5.09-37.744,14.998-54.521,12.787-83.971"/>
		<path fill="none" stroke="#000000" stroke-width="5.2511" d="M542.38,756.412c8.501-33.143,10.966-53.716,19.447-87.86"/>
		<path fill="none" stroke="#000000" stroke-width="5.2511" d="M486.031,869.232c35.157-0.947,50.909-20.635,80.735-24.225"/>
		<path fill="none" stroke="#000000" stroke-width="5.2511" d="M525.684,816.592c29.789-4.598,51.789-23.83,72.719-31.906"/>
		<path fill="none" stroke="#000000" stroke-width="5.2511" d="M551.925,758.926c37.627-17.953,45.706-41.133,68.899-64.801"/>
		<path fill="none" stroke="#000000" stroke-width="5.3992" d="M432.48,858.543c17.33-32.594,25.11-39.371,32.926-67.531"/>
		<path fill="none" stroke="#000000" stroke-width="5.2511" d="M446.495,915.17c28.247-9.186,40.001-6.338,76.325-20.033"/>
		<g>
			<path fill="#FFF33F" d="M319.123,796.51l4.896-1.018c9.967,47.967,32.394,72.287,66.657,72.287c0.002,0,0.004,0,0.006,0
				c48.624-0.004,108.562-50.123,125.729-75.873c8.772-13.158,16.671-24.184,22.843-31.883
				c9.099-11.354,11.785-12.303,13.588-12.303c1.156,0,2.196,0.586,2.782,1.57c1.042,1.75,2.981,5.008-18.043,43.783
				c-2.151,3.967-4.258,8.027-6.489,12.328c-20.988,40.457-49.732,95.863-171.809,168.109l-3.01,1.781L319.123,796.51z"/>
			<g>
				<path d="M552.841,750.221c2.96,0.002-1.782,12.748-17.459,41.662c-23.035,42.48-43.331,100.15-177.373,179.479l-36.438-175.359
					c11.493,55.309,38.487,74.277,69.111,74.277c50.525,0,110.921-51.656,127.809-76.986
					C536.57,766.174,549.529,750.217,552.841,750.221 M552.845,745.221h-0.002h-0.002c-2.696,0-5.727,0.996-15.54,13.24
					c-6.215,7.754-14.159,18.84-22.971,32.059c-16.917,25.373-75.893,74.76-123.648,74.76c-32.918,0-54.523-23.65-64.215-70.295
					l-9.791,2.035l36.438,175.359l1.423,6.848l6.019-3.563c54.339-32.158,94.949-63.576,124.149-96.047
					c25.292-28.127,37.678-52,48.605-73.064c2.225-4.289,4.327-8.34,6.467-12.287c6.869-12.668,11.937-22.775,15.06-30.039
					c4.437-10.316,4.455-13.656,2.935-16.213C556.732,746.266,554.891,745.221,552.845,745.221L552.845,745.221z"/>
			</g>
		</g>
	</g>
	<path fill="#FFF33F" stroke="#000000" stroke-width="5" d="M124.364,818.951C103.155,977.66,99.077,948.5,70,972.877
		c-17.367,14.559-29.642,56.15,6.575,73.412c39.425,18.787,120.61,19.463,152.064-6.91c31.453-26.367,56.877-135.65,52.046-246.488"
		/>
	<path fill="#FFF33F" stroke="#000000" stroke-width="5" d="M215.968,512.869C134.337,534.792,17.04,636.498,1.189,664.121
		c-27.603,48.053,110.941,21.047,165.928,3.41"/>
	<path fill="#FFF33F" stroke="#000000" stroke-width="5" d="M432.447,533.13c13.414,19.336,15.091,46.4,24.617,76.299
		c11.426,35.915,50.928,256.51,37.021,318.276c-10.167,45.156-151.782,54.584-205.543,58.736
		c-42.796,3.305-85.831-13.506-118.772-53.807c-45-55.055-52.771-138.641-47.985-210.177c4-59.78,7.621-135.229,33.674-176.578
		c30.257-48.013,91.208-60.721,139.916-60.515C340.687,485.556,402.935,490.572,432.447,533.13z"/>
	<path fill="#FFF33F" stroke="#000000" stroke-width="5" d="M423.332,511.683c85.654,37.18,175.066,113.662,200.535,154.068
		c32.744,51.955-134.723,8.08-172.321-3.703"/>
	<g>
		<path fill="#FFF33F" stroke="#000000" stroke-width="5" d="M489.81,102.772c-51.719-3.598-94.448,29.893-98.087,90.116
			c-42.554-10.295-74.898-14.248-124.007-12.373c-10.2,0.389-21.495,1.977-33.452,4.591c-0.974-49.543-33.094-93.712-93.608-93.712
			c-51.92,0-96.578,40.92-96.578,91.399c0,29.405,15.005,57.647,39.582,74.762c-8.821,7.134-16.86,14.537-23.837,22.11
			c-56.498,61.321-61.739,160.188,7,216.326c81.232,66.342,203.757,71.697,283.907,65.455
			c96.671-7.529,196.963-45.268,212.593-131.287c8.625-47.47-6.01-98.762-29.279-133.163c33.603-14.205,57.194-43.472,59.479-82.3
			C596.732,160.166,563.172,107.876,489.81,102.772z"/>
		<g display="none">
			<path display="inline" stroke="#000000" stroke-width="5" d="M540.549,178.98c11.843,26.522-0.063,57.629-26.58,69.468
				c-26.534,11.838-57.625-0.059-69.47-26.577c-11.848-26.527,0.064-57.638,26.583-69.477
				C497.613,140.554,528.706,152.459,540.549,178.98z"/>
			<path display="inline" fill="#FFFFFF" stroke="#FFFFFF" stroke-width="5" d="M528.202,182.826
				c3.602,8.059-0.021,17.523-8.084,21.116c-8.064,3.6-17.52-0.019-21.123-8.08c-3.595-8.068,0.033-17.526,8.082-21.119
				C515.147,171.138,524.609,174.753,528.202,182.826z"/>
		</g>
		<g display="none">
			<path display="inline" stroke="#000000" stroke-width="5" d="M191.627,161.59c11.843,26.522-0.063,57.629-26.58,69.468
				c-26.534,11.838-57.625-0.059-69.47-26.577c-11.848-26.527,0.064-57.638,26.583-69.477
				C148.691,123.164,179.784,135.069,191.627,161.59z"/>
			<path display="inline" fill="#FFFFFF" stroke="#FFFFFF" stroke-width="5" d="M179.28,165.436
				c3.602,8.059-0.021,17.523-8.084,21.116c-8.064,3.6-17.52-0.019-21.123-8.08c-3.595-8.068,0.033-17.526,8.082-21.119
				C166.226,153.748,175.688,157.363,179.28,165.436z"/>
		</g>
		<path stroke="#000000" stroke-width="5" d="M201.421,365.547c-0.08,2.56-2.203,4.574-4.736,4.494
			c-2.532-0.079-4.524-2.22-4.442-4.781c0.082-2.561,2.202-4.573,4.736-4.489C199.513,360.847,201.502,362.986,201.421,365.547z"/>
		<path stroke="#000000" stroke-width="5" d="M321.729,367.356c-0.083,2.562-2.205,4.573-4.738,4.493
			c-2.532-0.076-4.523-2.218-4.442-4.78c0.081-2.56,2.199-4.569,4.734-4.49C319.816,362.658,321.808,364.798,321.729,367.356z"/>
		<path display="none" fill="none" stroke="#000000" stroke-width="5" d="M155.911,425.265
			c25.527,45.147,134.418,65.245,226.02,19.998"/>
	</g>
	<g>
		<path fill="#FFFFFF" stroke="#000000" stroke-width="5" d="M338.471,849.803c5.509,70.348-2.321,101.447-8.403,132.529
			c-95.71,20.863-183.095-19.395-198.741-129.672c-19.95-140.611,6.154-207.43,86.625-207.43
			C279.286,645.23,327.371,708.062,338.471,849.803z"/>
		<path fill="#FFF33F" stroke="#000000" stroke-width="5" d="M165.981,833.961c0,0-3.373-49.621,36.917-58.078l5.488,49.295
			l3.293-49.295c0,0,45.862,0.748,55.019,51.406c8.645,47.834-43.484,12.752-48.981,19.475
			c-5.499,6.725,16.581,59.619,11.085,61.205c-5.498,1.582-13.479,0.18-16.574-3.377c-3.093-3.559-5.867-51.504-8.781-57.828
			C198.099,835.145,167.703,849.377,165.981,833.961z"/>
	</g>
	<path fill="#FFF33F" stroke="#000000" stroke-width="5" d="M339.428,923.393c-8.842,85.75-15.611,71.57-42.68,98.158
		c-16.167,15.881-25.132,58.311,12.33,72.668c40.781,15.627,121.768,9.912,151.049-18.852
		c29.281-28.762,46.028-139.707,32.491-249.82"/>
	<path fill="none" stroke="#FFFFFF" stroke-width="12.6911" d="M416.951,188.865"/>
	<path fill="none" stroke="#FFFFFF" stroke-width="9.0119" d="M461.089-314.607"/>
	<path stroke="#000000" stroke-width="7.3015" d="M240.871,182.266c0,0,63.986,21.829,142.302,10.808
		c0,0,23.154-40.276,3.86-101.183c0,0-53.545-40.77-126.867-15.228C260.166,76.663,228.088,112.267,240.871,182.266z"/>
	<polygon stroke="#000000" stroke-width="9.6606" stroke-linecap="round" stroke-linejoin="round" points="326.614,9.666 
		173.94,60.504 317.569,117.237 471.69,89.239 	"/>
</g>
<g id="レイヤー_2">
	<polyline fill="none" stroke="#000000" stroke-width="12" stroke-miterlimit="10" points="91.636,208.775 187.176,178.382 
		91.636,140.018 	"/>
	<polyline fill="none" stroke="#000000" stroke-width="12" stroke-miterlimit="10" points="544.785,230.561 449.245,200.167 
		544.785,161.803 	"/>
	<g>
		<polyline fill="none" stroke="#000000" stroke-width="6" points="378.361,477.949 352.563,455.051 322.49,471.95 296.688,449.052 
			266.611,465.95 240.809,443.052 210.731,459.95 184.924,437.051 154.843,453.949 		"/>
	</g>
</g>
</svg>
