<?xml version="1.0" encoding="utf-8"?>
<!-- Generator: Adobe Illustrator 16.0.0, SVG Export Plug-In . SVG Version: 6.00 Build 0)  -->
<!DOCTYPE svg PUBLIC "-//W3C//DTD SVG 1.1//EN" "http://www.w3.org/Graphics/SVG/1.1/DTD/svg11.dtd">
<svg version="1.1" id="はす" xmlns="http://www.w3.org/2000/svg" xmlns:xlink="http://www.w3.org/1999/xlink" x="0px" y="0px"
	 width="626px" height="626px" viewBox="0 0 632 626" enable-background="new 0 0 632 626" xml:space="preserve">
	 <defs>
	 	<clipPath id="cp-顔の輪郭">
			<path d="M503.81,130.772
				c-51.719-3.598-94.448,29.893-98.087,90.116c-42.554-10.295-74.898-14.248-124.007-12.373c-10.2,0.389-21.495,1.977-33.452,4.591
				c-0.974-49.543-33.094-93.712-93.608-93.712c-51.92,0-96.578,40.92-96.578,91.399c0,29.405,15.005,57.647,39.582,74.762
				c-8.821,7.134-16.86,14.537-23.837,22.11c-56.498,61.321-61.739,160.188,7,216.326c81.232,66.342,203.757,71.697,283.907,65.455
				c96.671-7.529,196.963-45.268,212.593-131.287c8.625-47.47-6.01-98.762-29.279-133.163c33.603-14.205,57.194-43.472,59.479-82.3
				C610.732,188.166,577.172,135.876,503.81,130.772z"/>
	 	</clipPath>
	 	<clipPath id="cp-目の輪郭1">
			<path d="M554.549,206.98
				c11.843,26.522-0.063,57.629-26.58,69.468c-26.534,11.838-57.625-0.059-69.47-26.577c-11.848-26.527,0.064-57.638,26.583-69.477
				C511.613,168.554,542.706,180.459,554.549,206.98z"/>
		</clipPath>
		<clipPath id="cp-目の輪郭2">
			<path d="M205.627,189.59
				c11.843,26.522-0.063,57.629-26.58,69.468c-26.534,11.838-57.625-0.059-69.47-26.577c-11.848-26.527,0.064-57.638,26.583-69.477
				C162.691,151.164,193.784,163.069,205.627,189.59z"/>
		</clipPath>
		<clipPath id="cp-帽子の輪郭1">
			<path d="M254.871,210.266
			c0,0,63.986,21.829,142.302,10.808c0,0,23.154-40.276,3.86-101.183c0,0-53.545-40.77-126.867-15.228
			C274.166,104.663,242.088,140.267,254.871,210.266z"/>
		</clipPath>
		<clipPath id="cp-帽子の輪郭2">
			<path d="M340.614,37.666 L187.94,88.504 L331.569,145.237 L485.69,117.239 Z"/>
		</clipPath>
	 </defs>
<path id="顔の塗り" clip-path="url(#cp-顔の輪郭)" fill="none" stroke="#FFF33F" stroke-width="120" stroke-linecap="round" stroke-linejoin="round" d="M95,62c-0.06,0.468-0.119,0.936-0.178,1.403c1.131-8.418,2.262-16.836,3.394-25.255
	c-1.884,13.402-6.071,26.262-11.263,38.724c3.192-7.565,6.384-15.129,9.577-22.694c-10.583,24.923-24.893,48.014-39.017,71.037
	c-14.358,23.404-27.425,47.469-40.601,71.553c-14.935,27.299-29.599,54.756-43.054,82.821
	c-16.436,34.282-30.363,69.637-44.229,105.007c-6.641,16.94-12.333,34.313-15.437,52.275
	c-5.958,34.496-8.202,68.249,2.202,102.384c7.273,23.863,21.94,44.053,43.658,56.775C-25.131,604.623-9.148,608.947,8,609
	c17.148-0.053,33.131-4.377,47.948-12.97c27.056-19.241,52.497-40.309,75.188-64.537c23.309-24.888,44.142-52.252,64.076-79.86
	c30.649-42.45,57.125-87.697,83.835-132.669c18.201-30.644,34.68-62.791,56.472-91.108c-4.951,6.409-9.903,12.818-14.854,19.227
	c7.288-9.349,15.208-18.226,24.514-25.618c-6.409,4.952-12.818,9.903-19.227,14.854c1.949-1.505,3.939-2.935,5.996-4.29
	c-46.518-18.925-93.037-37.85-139.555-56.775c0.436,2.42,0.821,4.842,1.158,7.277c-1.131-8.418-2.262-16.836-3.394-25.254
	c2.008,16.081,1.382,32.218-0.69,48.259c1.131-8.418,2.263-16.836,3.394-25.255c-2.139,15.676-6.05,30.862-9.27,46.317
	c-3.339,16.031-6.786,32.04-10.311,48.031c-7.027,31.881-14.427,63.68-22.097,95.412c-15.292,63.261-31.336,126.408-49.23,188.984
	c-11.658,40.769-22.522,81.869-29.56,123.719c-4.525,16.836-4.525,33.673,0,50.51c6.532,23.746,22.422,44.335,43.658,56.774
	c14.817,8.594,30.8,12.917,47.948,12.971c8.418-1.131,16.836-2.263,25.255-3.394c16.093-4.514,30.067-12.657,41.92-24.432
	c22.556-29.061,44.41-58.374,64.306-89.329c15.875-24.698,30.645-50.098,44.591-75.931
	c31.703-58.727,58.458-119.904,83.78-181.603c21.423-52.198,41.954-105.173,59.679-158.75
	c18.78-56.767,32.251-115.309,55.354-170.6c-3.192,7.564-6.384,15.129-9.577,22.693c0.24-0.569,0.481-1.139,0.721-1.708
	C471.02,103.966,412.01,87.983,353,72c-0.403,4.287-0.883,8.563-1.435,12.833c1.131-8.418,2.262-16.837,3.394-25.255
	c-8.393,62.287-32.671,120.786-48.118,181.389c-7.928,31.104-16.717,61.888-23.622,93.262
	c-6.945,31.558-12.713,63.375-17.191,95.376c-6.07,43.378-10.763,86.792-13.48,130.509C250.358,595.339,249.87,630.816,253,666
	c0.053,17.148,4.377,33.131,12.97,47.948c8.446,14.275,19.806,25.636,34.082,34.082c37.401,21.909,84.292,14.785,115.124-14.854
	c15.537-14.937,28.733-32.891,39.864-51.32c11.921-19.737,20.42-41.548,29.207-62.751c11.429-27.581,19.931-56.271,31.36-83.849
	c-3.192,7.564-6.384,15.129-9.577,22.693c27.075-63.922,51.581-128.437,70.259-195.355
	c16.493-59.089,29.165-119.414,51.835-176.596c1.371-3.457,2.796-6.891,4.241-10.317c-3.192,7.564-6.384,15.129-9.577,22.693
	c2.932-6.877,6.006-13.686,9.242-20.425C573.02,161.966,514.01,145.983,455,130c1.845,39.689-2.091,79.351-7.355,118.648
	c1.131-8.418,2.263-16.836,3.394-25.254c-4.162,30.794-9.187,61.464-13.455,92.244C434.43,338.379,431.256,361.146,429,384
	c-1.604,16.256-2.098,32.725-2.833,49.039c-1.461,32.437-1.832,64.925-0.56,97.375c0.643,16.403,2.618,32.652,3.44,49.029
	c0.801,15.954,0.392,31.946,0.123,47.908C429.076,632.9,429.008,638.45,429,644c-0.078,51.787,43.272,95,95,95
	c51.845,0,94.922-43.214,95-95c0.036-24.128,1.24-48.255-0.416-72.358c-0.856-12.459-2.242-24.814-2.811-37.306
	c-0.593-13.012-0.869-26.037-0.942-39.062c-0.28-49.695,2.012-99.666,8.615-148.933c-1.131,8.418-2.263,16.837-3.394,25.255
	c5.968-44.123,13.128-88.057,18.811-132.225c4.661-36.233,7.835-72.819,6.136-109.372c-0.053-17.148-4.377-33.131-12.97-47.948
	c-12.44-21.236-33.029-37.126-56.775-43.658c-16.836-4.524-33.673-4.524-50.51,0c-7.564,3.192-15.129,6.385-22.693,9.577
	c-14.275,8.446-25.636,19.806-34.082,34.082c-16.654,34.689-30.571,70.732-41.755,107.54
	c-8.854,29.141-16.206,58.711-23.965,88.154c-15.745,59.742-34.167,118.427-57.034,175.854
	c-3.688,9.264-7.487,18.483-11.354,27.673c3.192-7.564,6.384-15.129,9.577-22.694c-9.123,21.609-17.773,43.032-25.61,65.102
	c-5.686,16.013-11.397,32.021-17.956,47.703c3.192-7.564,6.384-15.129,9.577-22.693c-8.17,19.348-17.637,38.284-30.515,54.969
	c4.952-6.409,9.903-12.818,14.854-19.227c-4.004,5.089-8.294,9.903-12.964,14.392C334.883,621.217,388.941,643.608,443,666
	c-2.969-33.377-2.608-66.974-0.773-100.405c1.924-35.056,4.996-70.17,9.622-104.973c-1.131,8.418-2.262,16.836-3.394,25.254
	c8.605-63.889,22.581-126.929,40.104-188.94c8.514-30.127,17.355-60.078,26.507-90.024c9.164-29.986,17.649-60.274,22.335-91.326
	C539.585,101.111,541.63,86.581,543,72c-0.053-17.148-4.377-33.131-12.97-47.948c-12.44-21.236-33.029-37.126-56.775-43.658
	c-16.836-4.524-33.673-4.524-50.51,0c-7.564,3.192-15.129,6.385-22.693,9.577c-14.275,8.446-25.636,19.806-34.082,34.082
	c-8.997,21.315-17.867,42.471-25.388,64.341c-5.057,14.703-9.658,29.561-14.137,44.449c-9.012,29.957-17.426,60.094-27.312,89.781
	c-9.455,28.392-20.176,56.437-30.728,84.438c-10.391,27.576-21.186,55.001-32.505,82.21c-1.362,3.275-2.736,6.544-4.115,9.812
	c3.192-7.564,6.385-15.129,9.577-22.693C199.5,475.381,149.861,571.872,84.111,657.288c4.952-6.409,9.903-12.818,14.854-19.227
	c-0.711,0.922-1.425,1.844-2.141,2.763c52.927,30.81,105.854,61.62,158.782,92.43c10.712-63.699,30.645-125.271,47.089-187.605
	c16.632-63.048,32.43-126.32,46.932-189.895c7.093-31.098,13.428-62.367,20.605-93.439c5.153-22.311,8.424-45.212,10.465-67.985
	c2.09-23.322-0.951-46.621-5.091-69.585c-3.192-7.564-6.384-15.129-9.577-22.693c-8.446-14.275-19.806-25.636-34.082-34.082
	c-28.112-16.467-67.96-18.4-95.896,0c-15.422,10.158-30.236,21.922-42.448,35.858c-13.103,14.952-25.094,31.142-36.043,47.757
	c-13.499,20.485-25.024,42.166-37.614,63.202c-26.592,44.433-52.545,89.278-82.252,131.742
	c-7.078,10.117-14.391,20.068-21.936,29.842c4.952-6.409,9.903-12.818,14.854-19.227c-23.251,29.973-48.972,58.262-78.958,81.648
	c6.409-4.952,12.818-9.903,19.227-14.855c-3.559,2.749-7.167,5.426-10.831,8.032c46.518,18.925,93.037,37.85,139.555,56.775
	c-1.472-4.83-2.545-9.711-3.275-14.707c1.131,8.418,2.263,16.836,3.394,25.254c-1.372-10.696-1.075-21.389,0.302-32.068
	c-1.131,8.418-2.262,16.836-3.394,25.255c2.468-17.596,7.667-34.589,13.848-51.205c6.379-17.148,13.057-34.265,20.154-51.129
	c-3.192,7.564-6.384,15.129-9.577,22.693c23.839-56.271,53.706-110.048,83.555-163.307c12.823-22.879,27.476-44.678,40.234-67.6
	c10.312-18.526,18.488-37.808,26.515-57.452c4.702-11.509,8.333-23.494,10.066-35.821C282.684,79.781,283.875,70.895,285,62
	c-1.131-8.418-2.262-16.836-3.394-25.255c-4.514-16.093-12.657-30.067-24.431-41.92C239.439-22.911,215.095-33,190-33
	s-49.439,10.089-67.175,27.825c-4.951,6.409-9.903,12.818-14.854,19.227C99.377,28.869,95.053,44.852,95,62L95,62z"/>
<path id="顔の輪郭" fill="none" stroke="#000000" stroke-width="5" d="M503.81,130.772
	c-51.719-3.598-94.448,29.893-98.087,90.116c-42.554-10.295-74.898-14.248-124.007-12.373c-10.2,0.389-21.495,1.977-33.452,4.591
	c-0.974-49.543-33.094-93.712-93.608-93.712c-51.92,0-96.578,40.92-96.578,91.399c0,29.405,15.005,57.647,39.582,74.762
	c-8.821,7.134-16.86,14.537-23.837,22.11c-56.498,61.321-61.739,160.188,7,216.326c81.232,66.342,203.757,71.697,283.907,65.455
	c96.671-7.529,196.963-45.268,212.593-131.287c8.625-47.47-6.01-98.762-29.279-133.163c33.603-14.205,57.194-43.472,59.479-82.3
	C610.732,188.166,577.172,135.876,503.81,130.772z"/>
<path id="鼻1" fill="#040000" stroke="#000000" stroke-width="5" d="M215.421,393.547c-0.08,2.56-2.203,4.574-4.736,4.494
	c-2.532-0.079-4.524-2.22-4.442-4.781c0.082-2.561,2.202-4.573,4.736-4.489C213.513,388.847,215.502,390.986,215.421,393.547z"/>
<path id="鼻2" stroke="#000000" stroke-width="5" d="M335.729,395.356c-0.083,2.562-2.205,4.573-4.738,4.493
	c-2.532-0.076-4.523-2.218-4.442-4.78c0.081-2.56,2.199-4.569,4.734-4.49C333.816,390.658,335.808,392.798,335.729,395.356z"/>
<path id="口" fill="none" stroke="#000000" stroke-width="5" d="M169.911,453.265c25.527,45.147,134.418,65.245,226.02,19.998"/>
<path id="目の輪郭1" fill="#ffffff" stroke="#000000" stroke-width="5" d="M554.549,206.98
	c11.843,26.522-0.063,57.629-26.58,69.468c-26.534,11.838-57.625-0.059-69.47-26.577c-11.848-26.527,0.064-57.638,26.583-69.477
	C511.613,168.554,542.706,180.459,554.549,206.98z"/>
<path id="目の輪郭2" fill="#ffffff" stroke="#000000" stroke-width="5" d="M205.627,189.59
	c11.843,26.522-0.063,57.629-26.58,69.468c-26.534,11.838-57.625-0.059-69.47-26.577c-11.848-26.527,0.064-57.638,26.583-69.477
	C162.691,151.164,193.784,163.069,205.627,189.59z"/>
<path id="目の塗り1" clip-path="url(#cp-目の輪郭2)" fill="none" stroke="#040000" stroke-width="30" stroke-linecap="round" stroke-linejoin="round" d="M107.712,169.1c0.713,3.516-0.311-5.177,0.045,0.514c0.126,2.018,0.008,4.046-0.145,6.058
	c-0.232,2.179-0.145,1.649,0.263-1.59c-0.129,0.842-0.272,1.681-0.431,2.517c-0.388,2.15-0.915,4.274-1.454,6.39
	c-2.036,7.978-4.906,15.729-7.392,23.572c-5.9,18.61-8.434,37.781,0.631,55.813c3.695,7.349,14.72,12.26,22.586,9.191
	c24.641-9.613,34.023-34.515,39.686-58.519c4.679-19.831,5.639-41.437,13.281-60.444c-12.857,0-25.714,0-38.571,0
	c1.589,4.759,2.845,9.569,3.798,14.495c0.222,1.203,0.423,2.41,0.604,3.621c-0.301-2.3-0.314-2.264-0.039,0.111
	c0.325,3,0.466,6.019,0.571,9.033c0.376,10.792-0.704,21.605-2.086,32.295c0.61-4.72-0.418,2.762-0.536,3.566
	c-0.433,2.946-0.887,5.89-1.335,8.833c-0.979,6.436-1.907,12.877-2.746,19.333c-1.333,10.257-2.255,20.537-1.945,30.889
	c0.212,7.112,3.683,13.625,9.906,17.27c8.328,4.878,17.209,2.655,24.236-3.127c16.348-13.452,24.611-36.248,31.633-55.454
	c7.057-19.302,12.101-39.382,20.008-58.367c-12.857,0-25.714,0-38.571,0c0.196,1.24,0.38,2.482,0.554,3.725
	c-0.639-4.438,0.157,1.755,0.203,2.18c0.415,3.769,0.703,7.552,0.958,11.334c0.473,6.97,0.656,13.958,0.758,20.942
	c0.211,14.498-0.171,28.999-0.188,43.498c-0.012,10.902,9.106,20,20,20c10.912,0,19.988-9.098,20-20
	c0.034-30.936,0.988-61.616-3.714-92.313c-1.326-8.655-11.181-14.683-19.286-14.683c-9.755,0-15.799,6.312-19.286,14.683
	c-7.377,17.712-12.276,36.406-18.623,54.495c-1.647,4.695-3.395,9.354-5.244,13.974c-0.422,1.054-2.261,5.367-0.011,0.093
	c-0.507,1.189-1.037,2.369-1.567,3.548c-1.028,2.285-2.128,4.536-3.264,6.769c-2.09,4.111-4.448,8.082-7.099,11.855
	c-2.315,3.295,3.046-3.771,0.574-0.71c-0.631,0.781-1.305,1.526-1.98,2.269c-1.275,1.401-2.679,2.675-4.14,3.877
	c11.381,4.714,22.761,9.428,34.142,14.142c-0.153-5.117-0.02-10.214,0.313-15.321c0.15-2.301,0.373-4.597,0.601-6.891
	c0.119-1.155,0.246-2.31,0.38-3.463c0.073-0.648,0.816-6.445,0.17-1.641c1.584-11.785,3.52-23.519,5.097-35.306
	c3.134-23.427,3.29-47.527-4.276-70.188c-2.841-8.507-10.024-14.683-19.286-14.683c-9.671,0-15.909,6.286-19.286,14.683
	c-7.043,17.518-8.31,37.436-12.235,55.785c-1.067,4.985-2.282,9.938-3.684,14.84c-0.718,2.513-1.527,4.998-2.39,7.465
	c-0.356,1.02-0.743,2.028-1.13,3.036c-1.28,3.33,2.179-4.813-0.026,0.023c-0.821,1.801-1.753,3.547-2.738,5.264
	c-0.469,0.818-0.982,1.61-1.497,2.401c-2.722,4.184,2.491-2.941,0.428-0.428c-1.282,1.562-6.772,6.109-0.85,1.548
	c-1.757,1.353-7.81,3.785-0.907,1.092c7.529,3.064,15.058,6.127,22.586,9.191c-1.592-3.167,1.426,4.532-0.217-0.759
	c-0.458-1.476-1.152-6.978-0.39-0.491c-0.188-1.596-0.193-3.21-0.184-4.814c0.009-1.526,0.934-8.625-0.023-2.136
	c1.178-7.981,3.831-15.729,6.348-23.363c5.621-17.046,10.641-34.103,6.982-52.154c-2.167-10.689-14.646-16.708-24.603-13.969
	C110.639,147.535,105.548,158.425,107.712,169.1L107.712,169.1z"/>
<path id="目の塗り2" clip-path="url(#cp-目の輪郭1)" fill="none" stroke="#040000" stroke-width="30" stroke-linecap="round" stroke-linejoin="round" d="M459.214,186.49c0.713,3.516-0.311-5.177,0.045,0.514c0.126,2.018,0.008,4.046-0.145,6.058
	c-0.232,2.179-0.145,1.649,0.263-1.59c-0.129,0.842-0.272,1.681-0.431,2.517c-0.388,2.15-0.915,4.274-1.454,6.39
	c-2.036,7.978-4.906,15.729-7.392,23.572c-5.9,18.61-8.434,37.781,0.631,55.813c3.695,7.349,14.72,12.26,22.586,9.191
	c24.641-9.613,34.023-34.515,39.686-58.519c4.679-19.831,5.639-41.437,13.281-60.444c-12.857,0-25.714,0-38.571,0
	c1.589,4.759,2.845,9.569,3.798,14.495c0.222,1.203,0.423,2.41,0.604,3.621c-0.301-2.3-0.314-2.264-0.039,0.111
	c0.325,3,0.466,6.019,0.571,9.033c0.376,10.792-0.704,21.605-2.086,32.295c0.61-4.72-0.418,2.762-0.536,3.566
	c-0.433,2.946-0.887,5.89-1.335,8.833c-0.979,6.436-1.907,12.877-2.746,19.333c-1.333,10.257-2.255,20.537-1.945,30.889
	c0.212,7.112,3.683,13.625,9.906,17.27c8.328,4.878,17.209,2.655,24.236-3.127c16.348-13.452,24.611-36.248,31.633-55.454
	c7.057-19.302,12.101-39.382,20.008-58.367c-12.857,0-25.714,0-38.571,0c0.196,1.24,0.38,2.482,0.554,3.725
	c-0.639-4.438,0.157,1.755,0.203,2.18c0.415,3.769,0.703,7.552,0.958,11.334c0.473,6.97,0.656,13.958,0.758,20.942
	c0.211,14.498-0.171,28.999-0.188,43.498c-0.012,10.902,9.106,20,20,20c10.912,0,19.988-9.098,20-20
	c0.034-30.936,0.988-61.616-3.714-92.313c-1.326-8.655-11.181-14.683-19.286-14.683c-9.755,0-15.799,6.312-19.286,14.683
	c-7.377,17.712-12.276,36.406-18.623,54.495c-1.647,4.695-3.395,9.354-5.244,13.974c-0.422,1.054-2.261,5.367-0.011,0.093
	c-0.507,1.189-1.037,2.369-1.567,3.548c-1.028,2.285-2.128,4.536-3.264,6.769c-2.09,4.111-4.448,8.082-7.099,11.855
	c-2.315,3.295,3.046-3.771,0.574-0.71c-0.631,0.781-1.305,1.526-1.98,2.269c-1.275,1.401-2.679,2.675-4.14,3.877
	c11.381,4.714,22.761,9.428,34.142,14.142c-0.153-5.117-0.02-10.214,0.313-15.321c0.15-2.301,0.373-4.597,0.601-6.891
	c0.119-1.155,0.246-2.31,0.38-3.463c0.073-0.648,0.816-6.445,0.17-1.641c1.584-11.785,3.52-23.519,5.097-35.306
	c3.134-23.427,3.29-47.527-4.276-70.188c-2.841-8.507-10.024-14.683-19.286-14.683c-9.671,0-15.909,6.286-19.286,14.683
	c-7.043,17.518-8.31,37.436-12.235,55.785c-1.067,4.985-2.282,9.938-3.684,14.84c-0.718,2.513-1.527,4.998-2.39,7.465
	c-0.356,1.02-0.743,2.028-1.13,3.036c-1.28,3.33,2.179-4.813-0.026,0.023c-0.821,1.801-1.753,3.547-2.738,5.264
	c-0.469,0.818-0.982,1.61-1.497,2.401c-2.722,4.184,2.491-2.941,0.428-0.428c-1.282,1.562-6.772,6.109-0.85,1.548
	c-1.757,1.353-7.81,3.785-0.907,1.092c7.529,3.064,15.058,6.127,22.586,9.191c-1.592-3.167,1.426,4.532-0.217-0.759
	c-0.458-1.476-1.152-6.978-0.39-0.491c-0.188-1.596-0.193-3.21-0.184-4.814c0.009-1.526,0.934-8.625-0.023-2.136
	c1.178-7.981,3.831-15.729,6.348-23.363c5.621-17.046,10.641-34.103,6.982-52.154c-2.167-10.689-14.646-16.708-24.603-13.969
	C462.141,164.925,457.051,175.815,459.214,186.49L459.214,186.49z"/>
<path fill="#FFFFFF" d="M527.608,235.835c-7.289,0-13.921-4.299-16.895-10.953c-4.15-9.315,0.042-20.27,9.345-24.422
	c2.396-1.071,4.934-1.614,7.54-1.614c7.295,0,13.924,4.303,16.888,10.963c2.013,4.504,2.149,9.529,0.382,14.144
	c-1.767,4.615-5.224,8.263-9.733,10.272C532.744,235.293,530.211,235.835,527.608,235.835z"/>
<path id="ハイライト1" fill="none" stroke="#000000" stroke-width="7.3015" d="M527.599,201.347c6.118,0,11.955,3.528,14.604,9.479c3.602,8.059-0.021,17.523-8.084,21.116
	c-2.118,0.945-4.332,1.393-6.51,1.393c-6.118,0-11.956-3.528-14.613-9.473c-3.595-8.068,0.033-17.526,8.082-21.119
	C523.199,201.795,525.417,201.347,527.599,201.347"/>
<path fill="#FFFFFF" d="M178.686,218.445c-7.289,0-13.921-4.299-16.895-10.953c-4.15-9.315,0.042-20.27,9.345-24.422
	c2.396-1.071,4.934-1.614,7.54-1.614c7.295,0,13.924,4.303,16.888,10.963c2.013,4.504,2.149,9.529,0.382,14.144
	c-1.767,4.615-5.224,8.263-9.733,10.272C183.822,217.903,181.289,218.445,178.686,218.445z"/>
<path id="ハイライト2" fill="none" stroke="#000000" stroke-width="7.3015" d="M178.676,183.957c6.119,0,11.956,3.529,14.604,9.479c3.602,8.059-0.021,17.523-8.084,21.116
	c-2.118,0.945-4.332,1.393-6.51,1.393c-6.118,0-11.956-3.528-14.613-9.473c-3.595-8.068,0.033-17.526,8.082-21.119
	C174.277,184.405,176.495,183.957,178.676,183.957"/>
<path id="帽子の輪郭1" fill="none" stroke="#000000" stroke-width="7.3015" d="M254.871,210.266
	c0,0,63.986,21.829,142.302,10.808c0,0,23.154-40.276,3.86-101.183c0,0-53.545-40.77-126.867-15.228
	C274.166,104.663,242.088,140.267,254.871,210.266z"/>
<path id="帽子の輪郭2" fill="none" stroke="#000000" stroke-width="9.6606"  stroke-linecap="round" stroke-linejoin="round"
      d="M340.614,37.666 L187.94,88.504 L331.569,145.237 L485.69,117.239 Z"/>
<path id="帽子の塗り2" clip-path="url(#cp-帽子の輪郭1)" fill="none" stroke="#040000" stroke-width="30" stroke-linecap="round" stroke-linejoin="round" d="M247,94c0.417,20.844-1.76,41.592-2.402,62.407c-0.684,22.169,1.229,44.733,8.116,65.91
	c2.186,6.721,7.007,12.054,13.969,13.969c8.356,2.298,18.431-1.311,22.586-9.191c10.44-19.8,10.664-41.661,10.06-63.488
	c-0.271-9.814-0.455-19.638,0.704-29.406c-0.713,6.01,0.486-1.779,0.789-3.115c0.521-2.305,1.231-4.561,2.001-6.793
	c0.788-2.052,0.645-1.777-0.431,0.823c0.567-1.317,1.237-2.586,1.907-3.852c1.146-2.166,2.532-4.191,3.971-6.169
	c-12.185-1.592-24.37-3.185-36.555-4.777c0.524,2.013,0.974,4.03,1.363,6.074c0.363,2.276,0.356,2.053-0.021-0.671
	c0.126,1.043,0.234,2.088,0.324,3.135c0.404,4.25,0.444,8.533,0.407,12.799c-0.082,9.348-0.953,18.679-1.513,28.005
	c-1.278,21.277,0.313,41.915,9.455,61.435C284.64,227.306,292.454,231,299,231c7.585,0,13.021-4.032,17.27-9.906
	c9.366-12.948,8.604-31.571,10.48-46.726c-0.77,6.218,0.032,0.397,0.289-0.916c0.423-2.167,0.845-4.333,1.249-6.503
	c0.903-4.852,1.806-9.704,2.733-14.551c1.863-9.742,3.886-19.452,6.266-29.082c-12.857,0-25.714,0-38.571,0
	c0.206,1.089,0.392,2.181,0.557,3.277c-0.33-2.569-0.362-2.687-0.095-0.355c0.24,2.224,0.359,4.459,0.467,6.692
	c0.247,5.101,0.104,10.219-0.128,15.317c-0.45,9.854-1.56,19.671-2.418,29.495c-1.795,20.544-2.084,41.798,4.617,61.574
	c2.88,8.5,9.994,14.683,19.286,14.683c8.533,0,17.4-6.056,19.286-14.683c8.015-36.671,20.732-72.154,28-109
	c-13.095-1.772-26.19-3.544-39.286-5.317c0.3,4.352,0.299,8.677,0.051,13.032c-0.124,2.18-0.365,4.353-0.617,6.521
	c0.358-2.597,0.365-2.738,0.021-0.421c-0.253,1.639-0.56,3.27-0.864,4.9c-1.864,9.977-4.66,19.769-7.326,29.553
	c-5.521,20.259-10.65,41.26-9.265,62.416c1.15,17.562,20.829,26.265,34.142,14.142c17.675-16.095,21.424-42.256,25.987-64.452
	c5.583-27.161,17.693-52.106,26.156-78.373c-11.143,2.942-22.285,5.883-33.428,8.825c-4.133-5.208-2.372-3.154-1.548-1.652
	c1.595,2.91-1.93-5.119-0.825-1.846c0.277,0.82,0.466,1.67,0.659,2.513c1.142,4.984-0.388-4.211-0.021-0.604
	c0.49,4.822,0.23,9.724-0.142,14.543c-0.191,2.472-0.476,4.936-0.777,7.396c-0.556,4.538,0.685-4.839,0.027-0.292
	c-0.244,1.679-0.514,3.354-0.785,5.029c-0.849,5.231-1.836,10.439-2.824,15.645c-0.819,4.318-1.655,8.634-2.363,12.972
	c-0.462,2.836-1.879,13.146-0.742,5.207c-0.67,4.676-1.316,9.356-1.888,14.046c-1.783,14.64-1.492,31.354,7.1,43.995
	c7.518,11.059,21.331,12.983,31.412,4.048c14.529-12.878,15.926-34.15,16.453-52.207c0.106-3.646,0.182-7.293,0.405-10.936
	c0.154-2.524,0.375-5.04,0.626-7.556c0.132-1.26,0.275-2.52,0.43-3.778c0.74-6.242-0.592,3.994,0.321-2.239
	c1.831-12.49,4.095-24.891,5.623-37.428c1.322-10.849-10.098-20-20-20c-11.9,0-18.682,9.181-20,20
	c-0.302,2.401-0.309,2.519-0.02,0.35c-0.177,1.261-0.361,2.52-0.551,3.778c-0.375,2.522-0.787,5.039-1.196,7.555
	c-0.818,5.036-1.662,10.067-2.427,15.111c-1.511,9.971-2.739,19.969-3.069,30.053c-0.114,3.467-0.184,6.936-0.326,10.402
	c-0.074,1.806-0.19,3.609-0.32,5.412c-0.093,1.283-0.89,7.603-0.022,1.389c-0.476,3.408-1.279,6.751-2.391,10.006
	c-1.146,3.351,2.21-4.114-0.525,0.632c-1.164,1.747-0.791,1.333,1.121-1.241c-0.712,0.894-1.565,1.657-2.416,2.411
	c10.47,1.349,20.941,2.699,31.412,4.048c-0.754-1.109-1.409-2.215-2.024-3.407c2.408,4.662,0.554,1.024,0.166-0.341
	c-0.312-1.096-1.023-5.851-0.308-0.309c-0.255-1.975-0.306-3.975-0.349-5.963c-0.066-3.073,0.151-6.152,0.401-9.213
	c0.125-1.528,0.302-3.051,0.475-4.574c0.118-0.998,0.243-1.994,0.374-2.989c-0.387,2.875-0.425,3.2-0.115,0.976
	c0.381-2.694,0.777-5.384,1.111-8.085c0.402-3.258-0.819,5.764-0.299,2.307c0.319-2.124,0.706-4.237,1.091-6.35
	c0.954-5.229,1.984-10.445,2.938-15.674c4.229-23.178,10.318-51.381-5.587-71.425c-4.291-5.407-13.19-6.868-19.459-5.144
	c-6.948,1.911-11.803,7.248-13.969,13.969c-8.186,25.409-19.961,49.587-25.614,75.79c-2.235,10.363-4.035,20.811-6.894,31.031
	c-0.611,2.182-1.309,4.337-2.043,6.48c-0.428,1.25-0.908,2.481-1.391,3.71c2.076-5.285,0.458-1.188-0.065-0.098
	c-1.056,2.2-2.317,4.288-3.682,6.307c-2.385,3.53,3.007-3.562,0.245-0.418c-0.746,0.849-1.579,1.613-2.413,2.372
	c11.381,4.714,22.761,9.428,34.142,14.142c-0.298-4.554-0.3-9.082-0.051-13.639c0.124-2.262,0.365-4.516,0.617-6.767
	c-0.356,2.507-0.363,2.595-0.021,0.264c0.252-1.685,0.559-3.36,0.864-5.036c1.839-10.099,4.628-20.011,7.326-29.905
	c5.387-19.752,10.687-40.272,9.265-60.917c-0.618-8.964-5.657-16.803-14.683-19.286c-9.915-2.727-22.492,3.267-24.603,13.969
	c-7.268,36.847-19.984,72.329-28,109c12.857,0,25.714,0,38.571,0c-1.472-4.345-2.595-8.74-3.431-13.25
	c-0.364-2.327-0.376-2.24-0.037,0.261c-0.139-1.129-0.259-2.26-0.362-3.393c-0.28-2.841-0.392-5.696-0.475-8.549
	c-0.287-9.842,0.547-19.702,1.425-29.495c1.859-20.743,3.588-40.903-0.121-61.574C335.734,104.036,326.277,98,318,98
	c-8.717,0-17.159,6.078-19.286,14.683c-4.282,17.327-7.602,34.953-10.691,52.527c-1.428,8.128-2.003,16.39-2.939,24.582
	c-0.279,2.256-0.224,1.886,0.167-1.112c-0.132,0.909-0.276,1.816-0.433,2.721c-0.287,1.728-0.67,3.435-1.087,5.134
	c-0.352,1.434-2.45,6.755,0.104,0.808c-0.548,1.277-1.293,2.441-2.104,3.563c11.513,0,23.026,0,34.539,0
	c-0.954-2.084-0.942-2.005,0.033,0.235c-0.396-1.015-0.767-2.039-1.111-3.072c-0.71-2.043-1.246-4.142-1.76-6.241
	c-0.514-2.094-0.871-4.225-1.21-6.353c0.849,5.314-0.07-1.736-0.146-2.753c-0.65-8.774-0.148-17.617,0.404-26.381
	c1.196-19,2.664-37.982-2.194-56.658c-1.748-6.718-7.32-12.14-13.969-13.969c-9.312-2.561-17.237,1.839-22.586,9.191
	c-13.154,18.081-14.944,41.115-14.548,62.739c0.18,9.856,0.681,19.702,0.196,29.557c-0.118,2.388-0.344,4.767-0.613,7.142
	c0.687-6.066-0.423,1.649-0.723,3.008c-0.5,2.267-1.187,4.486-1.933,6.682c-0.78,2.046-0.621,1.747,0.478-0.898
	c-0.55,1.289-1.204,2.531-1.857,3.77c12.185,1.592,24.37,3.185,36.555,4.777c-1.599-4.916-2.942-9.877-4.048-14.926
	c-0.536-2.447-0.958-4.917-1.366-7.387c-0.353-2.388-0.373-2.453-0.059-0.195c-0.149-1.22-0.284-2.441-0.406-3.664
	c-1.08-10.261-1.07-20.617-0.752-30.918c0.624-20.215,2.75-40.347,2.346-60.593c-0.218-10.898-8.933-20-20-20
	C256.263,74,246.782,83.097,247,94L247,94z"/>
<path id="帽子の塗り1" clip-path="url(#cp-帽子の輪郭2)" fill="none" stroke="#040000" stroke-width="30" stroke-linecap="round" stroke-linejoin="round" d="M204.73,59.906c-1.304,2.941-2.93,5.623-4.781,8.25c-0.527,0.73-1.064,1.454-1.612,2.17
c1.754-2.266,1.971-2.549,0.652-0.85c-1.869,2.404-3.744,4.806-5.554,7.255c-5.794,7.84-8.469,16.673-9.436,26.269
c-0.879,8.728,6.753,17.104,14.683,19.286c9.4,2.585,17.129-1.897,22.586-9.191c-2.554,3.414,1.774-2.064,2.277-2.64
c1.416-1.621,2.93-3.153,4.453-4.672c2.935-2.927,6.109-5.611,9.306-8.244c6.81-5.607,14.209-10.656,20.444-16.92
c5.096-5.121,9.543-10.861,14.517-16.101c1.273-1.341,2.605-2.621,3.958-3.881c0.905-0.844,5.838-4.522,1.186-1.13
c1.41-1.028,2.924-1.894,4.459-2.718c1.953-0.928,1.536-0.764-1.251,0.495c1.198-0.454,2.45-0.729,3.699-0.998
c-7.529-9.793-15.058-19.586-22.586-29.38c-7.578,15.816-17.067,30.616-24.277,46.64c-8.067,17.927-18.243,43.152-5.723,61.549
c5.982,8.791,17.648,13.249,27.364,7.175c22.053-13.787,30.783-38.746,38.124-62.375c1.661-5.346,3.288-10.702,5.045-16.017
c0.859-2.598,1.771-5.176,2.724-7.741c0.4-1.078,0.823-2.147,1.247-3.216c1.32-3.332-2.057,4.602,0.198-0.408
c2.049-4.554,4.499-8.918,7.418-12.972c-4.023,5.588,0.797-0.688,2.167-2.031c1.095-1.072,5.042-4.07-0.256-0.064
c1.06-0.801,2.193-1.499,3.333-2.177c-9.121-2.392-18.242-4.783-27.364-7.175c-1.21-3.095-1.473-3.646-0.789-1.654
c0.462,1.409,0.854,5.344,0.139-0.807c0.234,2.017,0.126,4.067-0.018,6.085c-0.232,2.183-0.159,1.688,0.219-1.484
c-0.206,1.32-0.502,2.626-0.794,3.929c-0.606,2.712-1.428,5.375-2.273,8.02c-2.963,9.273-7.129,18.122-9.94,27.444
c-3.692,12.246-5.574,25.536-7.662,38.141C268.248,122.038,266.5,136.515,267,151c0.246,7.121,3.662,13.612,9.906,17.27
c8.393,4.917,17.135,2.585,24.236-3.127c19.355-15.57,26.527-42.155,32.738-65.091c3.266-12.06,6.338-24.153,10.768-35.854
c0.265-0.7,2.34-5.76,0.425-1.234c0.629-1.488,1.305-2.956,1.98-4.424c1.352-2.935,2.846-5.8,4.392-8.635
c1.559-2.858,3.27-5.63,5.033-8.366c0.893-1.385,1.837-2.737,2.782-4.087c0.358-0.512,3.705-4.932,0.881-1.307
c-10.47-1.349-20.941-2.699-31.412-4.048c-2.475-5.554,0.159,1.264,0.521,2.735c0.207,0.901,0.389,1.808,0.546,2.719
c0.902,4.835-0.461-4.634-0.011,0.369c0.497,5.518,0.249,11.101-0.146,16.616c-0.182,2.544-0.455,5.081-0.737,7.615
c-0.167,1.492-0.358,2.98-0.547,4.47c0.707-5.55,0.081-0.612-0.066,0.44c-0.313,2.244-0.634,4.487-0.944,6.731
c-0.36,2.607-0.706,5.216-1.05,7.825c-0.585,4.441,0.816-4.992-0.032-0.424C322.33,102.366,312.801,124.118,315,146
c0.726,7.225,3.355,13.432,9.906,17.27c6.256,3.665,13.922,3.514,20.188,0c11.279-6.325,18.26-16.35,22.907-28.125
c3.362-8.519,4.859-17.606,7.866-26.242c0.773-2.021,0.574-1.623-0.598,1.192c-1.089,2.578,4.914-11.647,1.511-3.61
c0.879-2.075,1.803-4.131,2.746-6.177c2.149-4.662,4.577-9.185,7.297-13.537c0.68-1.088,5.265-7.264,1.75-2.797
c1.429-1.816,3.011-3.502,4.639-5.14c0.655-0.642,1.327-1.266,2.016-1.871c3.519-3.177-3.59,2.495,0.278-0.238
c1.124-0.794,2.321-1.475,3.516-2.152c1.002-0.567,5.278-2.228,0.296-0.286c-8.201-4.656-16.402-9.313-24.603-13.969
c0.537,2.105,0.54,1.499,0.008-1.819c0.159,1.226,0.07,2.479-0.002,3.707c0.365-6.194-0.446,0.751-0.991,2.507
c-0.293,0.898-0.608,1.788-0.943,2.671c-1.704,4.648,1.812-4.002-0.222,0.561c-0.977,2.192-2.042,4.345-3.094,6.501
c-0.985,2.019-1.968,4.037-2.912,6.076c-1.22,2.634-5.362,12.655-2.027,4.85c-1.71,4.002-3.396,8.014-4.997,12.061
c-6.189,15.654-14.828,36.827-4.688,52.514c7.827,12.108,22.764,17.063,35.606,9.345c8.017-4.818,13.33-13.346,17.321-21.561
c1.958-4.029,3.65-8.199,5.325-12.35c0.41-1.016,0.801-2.039,1.187-3.063c0.642-1.703,1.313-3.392,1.996-5.078
c-1.646,4.061,0.657-1.395,0.847-1.817c5.206-11.536,11.645-22.484,18.141-33.328c-12.185-1.592-24.37-3.185-36.555-4.777
c1.346,3.77,2.253,7.603,2.903,11.55c-0.905-5.494,0.05,1.463,0.13,2.546c0.198,2.69,0.237,5.391,0.253,8.087
c0.053,9.194-0.875,18.386-2,27.5c-0.833,6.751,4.396,14.042,9.906,17.27c8.242,4.828,17.309,2.745,24.236-3.127
c15.059-12.766,24.52-32.63,31.144-50.825c-12.185,1.592-24.37,3.185-36.555,4.777c0.972,2.107,1.019,2.117,0.14,0.03
c0.434,1.083,0.841,2.175,1.223,3.276c0.987,2.743,1.738,5.569,2.46,8.391c1.309,5.115,2.215,10.334,3.161,15.525
c1.955,10.735,14.805,16.664,24.603,13.969c11.198-3.08,15.92-13.887,13.969-24.603c-2.339-12.843-5.313-24.945-11.016-36.777
C460.281,68.706,452.607,65,446,65c-9.445,0-16.205,6.221-19.286,14.683c-0.479,1.317-0.974,2.625-1.484,3.931
c-0.827,2.028-0.726,1.806,0.301-0.667c-0.41,0.94-0.831,1.876-1.262,2.808c-1.766,3.874-3.766,7.637-5.882,11.331
c-1.061,1.852-2.206,3.654-3.367,5.445c-0.528,0.814-4.615,6.376-1.396,2.232c-2.302,2.963-4.906,5.67-7.767,8.095
c11.381,4.714,22.761,9.428,34.142,14.142c2.431-19.697,4.083-41.274-2.714-60.317c-2.396-6.712-6.858-12.013-13.969-13.969
c-8.718-2.398-17.974,1.491-22.586,9.191c-5.587,9.329-11.04,18.729-15.852,28.486c-2.881,5.841-5.404,11.859-7.849,17.893
c-0.684,1.688-1.309,3.4-1.965,5.1c-0.593,1.535-2.629,6.329,0.176-0.271c-1.17,2.753-2.465,5.451-3.865,8.095
c-0.637,1.203-1.332,2.373-2.043,3.533c-0.347,0.556-0.707,1.105-1.078,1.646c-2.086,3.11,3.2-3.862,0.882-1.138
c-1.257,1.478-4.474,3.461,1.126-0.497c-1.719,0.995-0.722,0.613,2.992-1.143c4.062-1.525,8.201,0.131,11.844,1.731
c-1.6-0.985-0.833-0.392,2.299,1.779c3.721,3.524,2.019,2.822,0.87,0.787c1.489,4.036,1.972,5.109,1.447,3.218
c1.499,5.72,0.5,4.799,0.477,2.547c-0.018-1.667,0.743-6.051-0.298,0.959c0.254-1.708,0.65-3.396,1.051-5.074
c0.807-3.375,1.86-6.692,2.95-9.985c1.983-5.989,4.291-11.876,6.728-17.693c-3.466,8.272,0.013,0.152,1.06-2.608
c-2.333,6.149,0.458-0.789,1.108-2.139c1.866-3.871,3.78-7.711,5.478-11.66c4.898-11.396,8.6-23.371,5.016-35.786
c-2.786-9.652-14.34-17.967-24.603-13.969c-22.751,8.865-36.422,27.591-45.917,49.358c-0.351,0.811-0.697,1.623-1.039,2.437
c1.048-2.476-4.931,11.708-1.495,3.576c-1.357,3.213-2.683,6.342-3.769,9.644c-1.508,4.582-2.582,9.305-3.834,13.96
c-0.563,2.095-1.191,4.169-1.868,6.23c-0.374,1.138-2.075,5.344,0.194-0.022c-0.488,1.154-1.068,2.264-1.653,3.371
c-0.398,0.726-0.823,1.436-1.272,2.131c-2.318,3.728,3.007-3.427,0.092-0.115c-0.842,0.957-1.812,1.788-2.777,2.614
c4.057-3.47,0.716-0.813-0.438-0.167c10.031,5.757,20.063,11.513,30.094,17.27c-0.207-2.055-0.273-4.091-0.245-6.155
c0.018-1.333,0.126-2.666,0.229-3.995c0.087-1.119,0.754-5.897-0.043-0.288c0.784-5.518,2.04-10.97,3.331-16.387
c2.883-12.098,6.372-23.972,7.871-36.35c0.275-2.146,0.2-1.612-0.226,1.6c0.18-1.323,0.368-2.646,0.555-3.968
c0.582-4.123,1.151-8.246,1.692-12.374c0.726-5.524,1.339-11.054,1.681-16.616c0.844-13.733-0.97-26.983-6.575-39.561
c-4.891-10.977-23.934-13.647-31.412-4.048c-8.862,11.375-16.322,23.099-21.954,36.406c-5.541,13.091-9.429,26.395-13.21,40.067
c-2.987,10.802-5.758,21.654-9.735,32.148c-0.36,0.952-2.31,5.491-0.157,0.51c-0.56,1.297-1.172,2.57-1.785,3.843
c-1.203,2.494-2.576,4.898-4.028,7.253c-0.709,1.149-1.488,2.254-2.269,3.355c3.129-4.416,0.581-0.805-0.191,0.084
c-1.707,1.965-3.646,3.705-5.669,5.333c11.381,4.714,22.761,9.428,34.142,14.142c-0.227-6.574,0.007-13.118,0.552-19.672
c0.253-3.042,0.617-6.074,1-9.102c-0.577,4.574,0.263-1.5,0.339-1.995c0.282-1.832,0.596-3.66,0.908-5.487
c2.14-12.512,4.081-25.697,8.087-37.761c7.61-22.923,19.507-45.029,8.384-69.078c-4.556-9.849-18.674-12.344-27.364-7.175
c-22.139,13.169-30.878,38.338-38.124,61.626c-1.666,5.353-3.292,10.717-5.045,16.042c-0.86,2.613-1.772,5.207-2.724,7.788
c-0.4,1.087-0.823,2.165-1.247,3.243c-1.311,3.337,2.042-4.575-0.198,0.461c-2.055,4.619-4.505,9.052-7.418,13.186
c-2.276,3.231,3.092-3.809,0.591-0.791c-0.865,1.044-1.806,2.021-2.759,2.984c-0.945,0.955-1.968,1.829-3.001,2.686
c5-4.148,1.274-1.071-0.076-0.227c9.121,2.392,18.242,4.783,27.364,7.175c-0.283-0.393-0.544-0.799-0.782-1.22
c-1.672-2.774,1.926,5.175,0.834,2.073c-0.256-0.729-0.412-1.49-0.569-2.244c1.35,6.445,0.461,3.925,0.349,2.062
c-0.09-1.48,0.007-2.969,0.126-4.444c0.305-3.78-0.838,5.348-0.19,1.5c0.169-1.005,0.395-2,0.617-2.995
c0.893-3.992,2.223-7.885,3.646-11.715c0.49-1.32,3.225-7.842,0.7-1.928c0.976-2.286,2.02-4.542,3.077-6.791
c6.759-14.375,15.335-27.798,22.192-42.109c7.669-16.007-4.722-33.225-22.586-29.38c-19.181,4.128-30.734,20.296-43.346,33.715
c-6.322,6.727-14.171,12.021-21.315,17.824c-8.575,6.965-15.678,14.813-22.292,23.652C199.154,96.271,211.577,99.635,224,103
c-0.535,5.314-0.007,0.938,0.335-0.29c1.255-4.501-2.003,3.923,0.065-0.182c1.397-2.773,3.31-5.289,5.179-7.752
c-5.068,6.68,4.224-5.468,2.474-3.191c0.824-1.072,1.636-2.15,2.435-3.241c1.891-2.583,3.484-5.325,4.781-8.25
c4.418-9.967,3.002-21.402-7.175-27.364C223.488,47.689,209.15,49.935,204.73,59.906L204.73,59.906z"/>

  <!-- Animation script -->
  <script><![CDATA[
	var animates=["顔の輪郭","鼻1","鼻2","口","目の輪郭1","目の輪郭2","ハイライト1","ハイライト2","帽子の輪郭1","帽子の輪郭2",
	"帽子の塗り1","帽子の塗り2","目の塗り1","目の塗り2","顔の塗り"];
	(function oneset(interval){
		var fill_table={};
		animates.forEach(function(id){
			var elm=document.getElementById(id);
			//Path
			var lgh=elm.getTotalLength();
			elm.style.transition="none";
			elm.style.strokeDasharray=lgh+" "+lgh;
			elm.style.strokeDashoffset=lgh;
			//fill
			fill_table[id]=elm.style.fill;
			elm.style.fill="none";
			//再描画
			elm.getBoundingClientRect();
			elm.style.transition="stroke-dashoffset "+interval+"ms ease-in-out";
		});
		(function doo(index){
			var id=animates[index];
			if(id==null){
				setTimeout(oneset.bind(null,interval),interval*5);
				return;
			}
			var elm=document.getElementById(id);
			elm.style.strokeDashoffset="0";
			elm.style.fill=fill_table[id];
			//つぎ
			setTimeout(doo.bind(null,index+1),interval);
		})(0);
	})(400);
  ]]></script>
</svg>
